<?xml version="1.0" encoding="utf-8"?>
<!-- Generator: Adobe Illustrator 23.0.0, SVG Export Plug-In . SVG Version: 6.00 Build 0)  -->
<svg version="1.1" xmlns="http://www.w3.org/2000/svg" xmlns:xlink="http://www.w3.org/1999/xlink" x="0px" y="0px"
	 viewBox="0 0 841.89 595.28" style="enable-background:new 0 0 841.89 595.28;" xml:space="preserve">
<style type="text/css">
	.st0{fill:#D34F4D;}
	.st1{fill:#FFFFFF;}
</style>
<g id="Слой_3">
</g>
<g id="Слой_2">
	<circle class="st0" cx="386.9" cy="288.11" r="237.96"/>
</g>
<g id="Слой_1">
	<g>
		<path class="st1" d="M323.79,470.37c-78.15-44.03-98.71-85.75-86.94-142.66c8.72-42.02,37.1-76.29,39.86-118.23
			c12.14,22.13,17.21,38.07,18.55,61.16c38.66-47.31,64.22-112.86,65.71-181.7c0,0,100.65,59.15,107.2,148.4
			c8.64-18.4,13.04-47.68,4.4-66.6c26,18.92,178.12,187.14-20.64,299.55c37.32-72.71,9.61-170.9-55.2-216.19
			c4.32,19.52-3.28,92.15-31.96,124.11c7.97-53.34-7.6-75.91-7.6-75.91s-5.29,29.87-26,60.12
			C312.32,389.99,299.28,419.26,323.79,470.37z"/>
	</g>
</g>
</svg>
